<?xml version="1.0" standalone="no"?><!DOCTYPE svg PUBLIC "-//W3C//DTD SVG 1.1//EN" "http://www.w3.org/Graphics/SVG/1.1/DTD/svg11.dtd"><svg class="icon" width="200px" height="200.00px" viewBox="0 0 1024 1024" version="1.1" xmlns="http://www.w3.org/2000/svg"><path fill="#ffffff" d="M495.037578 4.249104l33.99283 0 0 509.892445-33.99283 0 0-509.892445ZM896.934803 181.317753 851.928296 181.317753l0 0.067986c84.030275 85.797902 135.971319 203.175143 135.971319 332.755809 0 262.832559-213.067056 475.899615-475.899615 475.899615s-475.899615-213.067056-475.899615-475.899615c0-129.614659 51.941044-246.957907 135.971319-332.755809L172.071704 181.317753 127.031204 181.317753C49.561546 270.616917 2.107555 386.600451 2.107555 514.141548c0 281.596601 228.261851 509.892445 509.892445 509.892445 281.562608 0 509.892445-228.295844 509.892445-509.892445C1021.892445 386.600451 974.438454 270.616917 896.934803 181.317753z" /></svg>