<?xml version="1.0" standalone="no"?><!DOCTYPE svg PUBLIC "-//W3C//DTD SVG 1.1//EN" "http://www.w3.org/Graphics/SVG/1.1/DTD/svg11.dtd"><svg class="icon" width="200px" height="199.61px" viewBox="0 0 1026 1024" version="1.1" xmlns="http://www.w3.org/2000/svg"><path d="M513.024 0c-282.624 0-512 229.376-512 512 0 180.224 93.184 338.944 234.496 430.08 39.424 25.6 82.432 45.568 128 59.392 47.616 14.336 97.792 22.016 149.504 22.016 52.224 0 102.4-7.68 149.504-22.016 45.568-13.824 88.576-34.304 128-59.392 140.8-91.136 234.496-249.856 234.496-430.08 0-282.624-229.376-512-512-512z m130.048 937.984c-41.984 12.8-86.016 19.456-130.048 19.456-44.544 0-88.064-6.656-130.048-19.456-32.768-10.24-64.512-23.552-94.208-40.96-9.216-25.088-13.824-52.224-13.824-79.872 0-131.072 107.008-238.08 238.08-238.08s238.08 107.008 238.08 238.08c0 28.16-5.12 55.296-13.824 80.384-29.696 16.384-60.928 30.208-94.208 40.448z m-270.848-566.784c0-77.824 62.976-140.8 140.8-140.8s140.8 62.976 140.8 140.8-62.976 140.8-140.8 140.8-140.8-62.976-140.8-140.8z m444.928 466.432c0.512-6.656 1.024-13.824 1.024-20.992 0-124.416-74.752-231.424-181.76-278.528 51.2-37.888 84.48-98.304 84.48-166.912 0-114.176-93.184-207.36-207.36-207.36s-207.36 93.184-207.36 207.36c0 68.096 33.28 129.024 84.48 166.912-107.008 47.616-181.76 154.624-181.76 278.528 0 7.168 0 13.824 0.512 20.992-89.6-83.456-141.312-200.192-141.312-325.632 0-245.76 199.68-445.44 445.44-445.44s445.44 199.68 445.44 445.44c-0.512 124.928-52.224 242.176-141.824 325.632z" /></svg>